<svg width="28" height="25" viewBox="0 0 28 25" fill="none" xmlns="http://www.w3.org/2000/svg">
<g clip-path="url(#clip0_3_6172)">
<path d="M3.89407 12.0711C3.74542 12.1569 3.62335 12.2739 3.53887 12.4116C3.45439 12.5492 3.41016 12.7032 3.41016 12.8597C3.41016 13.0162 3.45439 13.1702 3.53887 13.3078C3.62335 13.4455 3.74542 13.5625 3.89407 13.6483L22.3935 23.934C22.5415 24.0092 22.7094 24.0488 22.8804 24.0488C23.0513 24.0488 23.2192 24.0092 23.3672 23.934C23.5176 23.8497 23.6413 23.7331 23.7264 23.5951C23.8116 23.4572 23.8555 23.3024 23.854 23.1454L23.854 2.57399C23.8555 2.41699 23.8116 2.26224 23.7264 2.12429C23.6413 1.98634 23.5176 1.86973 23.3672 1.78542C23.2192 1.71019 23.0513 1.67058 22.8804 1.67058C22.7094 1.67058 22.5415 1.71019 22.3935 1.78542L3.89407 12.0711Z" fill="#239EFE " stroke="#239EFE " stroke-width="1.71429" stroke-linecap="round" stroke-linejoin="round"/>
</g>
<defs>
<clipPath id="clip0_3_6172">
<rect width="24" height="27.2624" fill="white" transform="translate(0 24.8594) rotate(-90)"/>
</clipPath>
</defs>
</svg>
