<svg width="29" height="25" viewBox="0 0 29 25" fill="none" xmlns="http://www.w3.org/2000/svg">
<g clip-path="url(#clip0_3_6173)">
<path d="M24.1098 13.6476C24.2585 13.5618 24.3806 13.4449 24.465 13.3072C24.5495 13.1695 24.5937 13.0155 24.5937 12.859C24.5937 12.7026 24.5495 12.5486 24.465 12.4109C24.3806 12.2732 24.2585 12.1562 24.1098 12.0705L5.61038 1.78475C5.46236 1.70952 5.29446 1.66992 5.12355 1.66992C4.95264 1.66992 4.78474 1.70952 4.63672 1.78475C4.48627 1.86907 4.36265 1.98568 4.27749 2.12363C4.19233 2.26158 4.14842 2.41633 4.14989 2.57332L4.14989 23.1448C4.14841 23.3018 4.19232 23.4565 4.27749 23.5945C4.36265 23.7324 4.48627 23.849 4.63672 23.9333C4.78473 24.0086 4.95263 24.0482 5.12354 24.0482C5.29446 24.0482 5.46236 24.0086 5.61037 23.9333L24.1098 13.6476Z" fill="#239EFE" stroke="#239EFE " stroke-width="1.71429" stroke-linecap="round" stroke-linejoin="round"/>
</g>
<defs>
<clipPath id="clip0_3_6173">
<rect width="24" height="27.2624" fill="white" transform="translate(28.0039 0.859375) rotate(90)"/>
</clipPath>
</defs>
</svg>
