<svg xmlns="http://www.w3.org/2000/svg" width="62" height="54" viewBox="0 0 62 54" fill="none">
<path fill-rule="evenodd" clip-rule="evenodd" d="M9.97467 0.333984H51.9168C57.173 0.333984 61.449 4.35491 61.449 9.29757V28.3452C61.449 29.2717 60.8421 30.1029 59.9229 30.4364C59.0031 30.7695 57.9601 30.5362 57.2991 29.8486L45.6105 17.7005L28.2471 38.4677L33.7263 45.1519H42.5036C43.8199 45.1519 44.8867 46.1551 44.8867 47.3928C44.8867 48.6306 43.8199 49.6337 42.5036 49.6337H9.97467C4.71842 49.6337 0.442383 45.6128 0.442383 40.6701V9.29757C0.442383 4.35491 4.71842 0.333984 9.97467 0.333984ZM47.2497 12.7248L56.6829 22.5291V9.2982C56.6829 6.82709 54.5446 4.81641 51.9167 4.81641H9.97467C7.34678 4.81641 5.20853 6.82709 5.20853 9.2982V40.6707C5.20853 43.1419 7.34678 45.1525 9.97467 45.1525H27.7085L17.1258 32.2429L13.7685 36.3474C12.9656 37.3282 11.4697 37.512 10.4262 36.7571C9.38309 36.0025 9.18807 34.5958 9.9905 33.6146L15.2351 27.2035C15.6857 26.6525 16.3834 26.3295 17.1225 26.329H17.1239C17.863 26.329 18.5602 26.6516 19.0113 27.2017L25.2454 34.8068L43.609 12.8434C44.0433 12.3243 44.6986 12.0118 45.4001 11.9886C46.101 11.9645 46.7787 12.235 47.2497 12.7248ZM9.97467 15.1247C9.97467 11.4176 13.1816 8.40202 17.1239 8.40202C21.0662 8.40202 24.2731 11.4176 24.2731 15.1247C24.2731 18.8318 21.0662 21.8474 17.1239 21.8474C13.1816 21.8474 9.97467 18.8318 9.97467 15.1247ZM14.7408 15.1253C14.7408 16.3609 15.8099 17.3662 17.1239 17.3662C18.4378 17.3662 19.507 16.3609 19.507 15.1253C19.507 13.8898 18.4378 12.8844 17.1239 12.8844C15.8099 12.8844 14.7408 13.8898 14.7408 15.1253ZM56.2526 34.2669C56.2561 34.2703 56.2596 34.2737 56.2631 34.277L60.7779 38.6634C61.6934 39.5527 61.6692 40.9712 60.7234 41.8321C60.2608 42.2532 59.6631 42.4628 59.066 42.4628C58.4432 42.4628 57.8209 42.2348 57.3536 41.7805L54.4059 38.9172V51.4264C54.4059 52.6642 53.3391 53.6673 52.0229 53.6673C50.7066 53.6673 49.6398 52.6642 49.6398 51.4264V38.849L46.56 41.7052C45.623 42.5744 44.1141 42.5644 43.1901 41.6833C42.2658 40.8023 42.276 39.3834 43.213 38.5146L47.8139 34.2472C48.9388 33.1867 50.4329 32.6029 52.0229 32.6029C53.6175 32.6029 55.1157 33.1903 56.2421 34.2569C56.2456 34.2601 56.2491 34.2635 56.2526 34.2669Z" fill="white"/>
</svg>