<svg width="232" height="8" viewBox="0 0 232 8" fill="none" xmlns="http://www.w3.org/2000/svg">
<path fill-rule="evenodd" clip-rule="evenodd" d="M66.6516 7.27407C29.7077 7.37733 29.4842 7.3488 28.3745 7.13683C27.7759 7.02249 22.4083 6.87504 16.4465 6.80915C9.30587 6.73024 5.00555 6.59758 3.84491 6.42041C2.87589 6.27248 1.61434 6.15145 1.0415 6.15145C0.46866 6.15145 0 5.98623 0 5.78429C0 5.49163 0.72557 5.41714 3.57599 5.41714C5.54275 5.41714 7.15193 5.33453 7.15193 5.23356C7.15193 5.13259 6.20134 5.04998 5.0395 5.04998C1.98584 5.04998 1.10398 4.68695 4.09479 4.66108C5.47694 4.64913 6.97508 4.64913 7.42402 4.66108C7.87295 4.67304 8.24028 4.60021 8.24028 4.49924C8.24028 4.39827 7.0159 4.31566 5.51944 4.31566C4.02298 4.31566 2.79859 4.23305 2.79859 4.13208C2.79859 4.03111 3.31522 3.9485 3.94663 3.9485C4.55258 3.9485 7.1703 3.78551 9.86428 3.58118C8.50706 3.54578 7.69054 3.49917 7.69054 3.4483C7.69054 3.34733 9.52709 3.26359 11.7718 3.26221C13.0014 3.26146 14.4759 3.24348 15.8041 3.21578C17.3207 3.145 18.985 3.08153 20.8487 3.02445L21.2947 3.00344L18.0298 2.88043C16.1617 2.81005 17.7291 2.75665 22.4866 2.72642C23.6216 2.70911 24.0865 2.61012 23.7376 2.4567C23.6764 2.42983 23.6453 2.40352 23.6428 2.37804C17.5253 2.40261 11.5759 2.45199 8.7789 2.52073C2.91594 2.66482 1.24473 2.63858 2.5254 2.42256C3.61985 2.23794 11.3432 1.95118 14.6809 1.97123C16.4306 1.98174 18.2205 1.89253 18.6585 1.77299C19.0965 1.65345 21.0788 1.56343 23.0636 1.57295C23.553 1.57529 24.0511 1.57336 24.5332 1.56785C23.8248 1.4475 24.3921 1.39785 26.5497 1.23202C26.9639 1.20019 27.359 1.16263 27.7184 1.12205C25.7946 1.11875 23.1988 1.12355 20.2064 1.13756C3.11872 1.21753 8.74506 0.947587 27.5567 0.784905C28.2144 0.779217 28.8722 0.773332 29.5268 0.767292C29.5301 0.762215 29.5318 0.757229 29.5318 0.752341C29.5318 0.614571 31.1006 0.448927 33.0179 0.384242C35.998 0.283706 36.1955 0.246274 34.3783 0.126366C33.2092 0.0492182 47.19 -0.00730132 65.4468 0.000766988C83.7036 0.008833 96.4372 0.073232 93.7435 0.14387C89.5595 0.253595 89.3217 0.280586 92.111 0.329151C93.1642 0.347488 99.9168 0.370915 109.487 0.392205C119.058 0.370915 125.81 0.347488 126.863 0.329151C129.653 0.280586 129.415 0.253595 125.231 0.14387C122.537 0.073232 135.271 0.008833 153.527 0.000766988C171.784 -0.00730132 185.765 0.0492182 184.596 0.126366C182.779 0.246274 182.976 0.283706 185.956 0.384242C187.874 0.448927 189.442 0.614571 189.442 0.752341C189.442 0.757229 189.444 0.762215 189.447 0.767292C190.102 0.773332 190.76 0.779217 191.418 0.784905C210.229 0.947587 215.856 1.21753 198.768 1.13756C195.775 1.12355 193.18 1.11875 191.256 1.12205C191.615 1.16263 192.01 1.20019 192.425 1.23202C194.582 1.39785 195.15 1.4475 194.441 1.56785C194.923 1.57336 195.421 1.57529 195.911 1.57295C197.895 1.56343 199.878 1.65345 200.316 1.77299C200.754 1.89253 202.544 1.98174 204.293 1.97123C206.583 1.95747 210.936 2.08809 213.798 2.23107C214.172 2.2457 214.46 2.26113 214.664 2.2774C215.54 2.3279 216.186 2.37818 216.449 2.42256C216.513 2.43336 216.57 2.44368 216.619 2.45353C217.465 2.49814 218.476 2.52632 219.411 2.52632C222.05 2.52632 222.489 2.5883 222.016 2.89347C221.582 3.17344 221.982 3.26063 223.703 3.26063C224.943 3.26063 225.637 3.315 225.243 3.38143C225.129 3.40054 225.069 3.42821 225.057 3.4613C229.347 3.51075 232.144 3.57709 231.879 3.65201C231.582 3.73582 229.165 3.85952 226.395 3.93533C226.42 3.96895 226.309 3.98414 226.052 3.97327C225.113 3.93347 222.309 4.13295 220.552 4.32324C220.484 4.39722 219.914 4.49147 219.069 4.57797C219.128 4.65245 219.961 4.67086 220.971 4.61787C222.398 4.54302 222.33 4.57489 220.699 4.74504C220.339 4.78255 219.964 4.82798 219.602 4.87686C220.746 4.87019 222.162 4.85914 223.873 4.84411C229.556 4.79418 233.079 4.79961 231.702 4.85619C229.846 4.93244 229.496 5.01762 230.348 5.18559C231.232 5.35962 230.057 5.46198 225.282 5.62705C218.564 5.85929 214.304 6.10987 213.724 6.29265C214.935 6.36051 215.801 6.45525 215.801 6.54415C215.801 6.56066 215.432 6.57552 214.763 6.58828C214.692 6.81042 211.155 7.06575 205.84 7.19468C202.413 7.2778 200.345 7.35726 201.244 7.37123C202.583 7.39205 202.545 7.43069 201.036 7.58434C200.023 7.68755 196.231 7.73809 192.611 7.69666C188.681 7.65166 186.035 7.69351 186.045 7.80053C186.065 8.02285 168.598 8.07049 154.487 7.88665C133.897 7.61839 128.758 7.58445 132.16 7.7392C134.858 7.86187 134.315 7.88754 129.098 7.88404C125.61 7.88168 122.536 7.82148 122.266 7.75027C122.032 7.68851 121.048 7.63678 119.239 7.59435C116.698 7.65624 115.029 7.71411 114.788 7.75475C114.477 7.80719 112.999 7.85015 111.502 7.85015C108.076 7.85015 108.977 7.68066 113.067 7.55555C113.453 7.54376 113.83 7.53123 114.184 7.51855C108.759 7.46491 100.468 7.43992 88.8559 7.43935C75.9 7.43871 68.8084 7.38655 66.6516 7.27407ZM210.942 3.37473C214.213 3.38173 217.459 3.39673 220.385 3.41819C220.55 3.28091 220.082 3.17717 219.338 3.18721C218.59 3.1973 215.162 3.22048 211.72 3.23866C210.218 3.24661 209.091 3.25603 208.291 3.26955C209.478 3.28515 210.452 3.32433 210.942 3.37473ZM20.7507 1.89871C20.7507 1.85418 21.2404 1.7667 21.8391 1.70429C22.4376 1.64189 22.9274 1.67832 22.9274 1.78525C22.9274 1.89218 22.4376 1.97966 21.8391 1.97966C21.2404 1.97966 20.7507 1.94323 20.7507 1.89871ZM180.192 0.32745C179.822 0.226481 180.038 0.14387 180.672 0.14387C181.306 0.14387 181.824 0.226481 181.824 0.32745C181.824 0.428418 181.608 0.511029 181.344 0.511029C181.08 0.511029 180.562 0.428418 180.192 0.32745ZM148.902 0.190671C154.439 0.157352 163.499 0.157352 169.036 0.190671C174.573 0.223991 170.043 0.251249 158.969 0.251249C147.895 0.251249 143.365 0.223988 148.902 0.190671ZM198.224 1.89871C198.224 1.85418 197.734 1.7667 197.135 1.70429C196.537 1.64189 196.047 1.67832 196.047 1.78525C196.047 1.89218 196.537 1.97966 197.135 1.97966C197.734 1.97966 198.224 1.94323 198.224 1.89871ZM38.7825 0.32745C39.1525 0.226481 38.9365 0.14387 38.3026 0.14387C37.6686 0.14387 37.15 0.226481 37.15 0.32745C37.15 0.428418 37.3659 0.511029 37.6299 0.511029C37.8939 0.511029 38.4126 0.428418 38.7825 0.32745ZM70.0721 0.190671C64.5352 0.157352 55.4748 0.157352 49.9379 0.190671C44.401 0.223991 48.9312 0.251249 60.005 0.251249C71.0788 0.251249 75.609 0.223988 70.0721 0.190671ZM37.8974 6.93978C36.5506 6.89602 34.3467 6.89602 32.9999 6.93978C31.6531 6.98354 32.755 7.01934 35.4486 7.01934C38.1422 7.01934 39.2442 6.98354 37.8974 6.93978Z" fill="#01AFD1  "/>
</svg>
